<svg width="1000" height="1400" viewBox="0 0 1000 1400" fill="none" xmlns="http://www.w3.org/2000/svg" preserveAspectRatio="none">
<g clip-path="url(#clip0_27_59)">
<rect y="965" width="49" height="435" fill="#8B0A57" fill-opacity="0.2"/>
<rect y="886" width="99" height="210" fill="#8B0A57" fill-opacity="0.2"/>
<rect x="21" y="1145" width="64" height="97" fill="#8B0A57" fill-opacity="0.2"/>
<rect x="29" y="30" width="389" height="220" fill="#8B0A57" fill-opacity="0.2"/>
<rect x="920" y="1005" width="80" height="237" fill="#8B0A57" fill-opacity="0.2"/>
<rect x="957" y="1046" width="43" height="312" fill="#8B0A57" fill-opacity="0.2"/>
<rect x="903" y="797" width="97" height="152" fill="#8B0A57" fill-opacity="0.2"/>
<rect x="811" y="51" width="189" height="542" fill="#8B0A57" fill-opacity="0.2"/>
<rect x="943" y="495" width="57" height="587" fill="#8B0A57" fill-opacity="0.2"/>
<rect width="99" height="739" fill="#8B0A57" fill-opacity="0.2"/>
<rect width="587" height="386" fill="#8B0A57" fill-opacity="0.2"/>
<rect width="186" height="612" fill="#8B0A57" fill-opacity="0.2"/>
<rect width="67" height="1019" fill="#8B0A57" fill-opacity="0.2"/>
<rect x="85" width="226" height="457" fill="#8B0A57" fill-opacity="0.2"/>
<rect x="731" width="269" height="523" fill="#8B0A57" fill-opacity="0.2"/>
<rect x="879" width="121" height="699" fill="#8B0A57" fill-opacity="0.2"/>
<rect x="462" width="538" height="408" fill="#8B0A57" fill-opacity="0.2"/>
<rect x="645" width="355" height="187" fill="#8B0A57" fill-opacity="0.2"/>
</g>
<defs>
<clipPath id="clip0_27_59">
<rect width="1000" height="1400" fill="white"/>
</clipPath>
</defs>
</svg>
