<svg width="1920" height="1200" viewBox="0 0 1920 1200" fill="none" xmlns="http://www.w3.org/2000/svg" preserveAspectRatio="none">
<g clip-path="url(#clip0_25_2)">
<rect x="156" y="652" width="54" height="309" fill="#8B0A57" fill-opacity="0.2"/>
<rect y="705" width="96" height="495" fill="#8B0A57" fill-opacity="0.2"/>
<rect y="818" width="190" height="72" fill="#8B0A57" fill-opacity="0.2"/>
<rect y="421" width="133" height="576" fill="#8B0A57" fill-opacity="0.2"/>
<rect x="172" y="457" width="69" height="248" fill="#8B0A57" fill-opacity="0.2"/>
<rect x="29" y="616" width="234" height="149" fill="#8B0A57" fill-opacity="0.2"/>
<rect x="76" y="359" width="122" height="322" fill="#8B0A57" fill-opacity="0.2"/>
<rect x="210" y="53" width="144" height="444" fill="#8B0A57" fill-opacity="0.2"/>
<rect x="29" y="91" width="473" height="217" fill="#8B0A57" fill-opacity="0.2"/>
<rect x="1810" y="739" width="108" height="237" fill="#8B0A57" fill-opacity="0.2"/>
<rect x="1840" y="846" width="78" height="312" fill="#8B0A57" fill-opacity="0.2"/>
<rect x="1705" y="713" width="213" height="75" fill="#8B0A57" fill-opacity="0.2"/>
<rect x="1745" y="327" width="173" height="248" fill="#8B0A57" fill-opacity="0.2"/>
<rect x="1717" y="520" width="201" height="149" fill="#8B0A57" fill-opacity="0.2"/>
<rect x="1796" y="97" width="122" height="402" fill="#8B0A57" fill-opacity="0.2"/>
<rect x="1861" y="268" width="57" height="614" fill="#8B0A57" fill-opacity="0.2"/>
<rect x="1598" y="52" width="132" height="523" fill="#8B0A57" fill-opacity="0.2"/>
<rect x="1777" y="461" width="54" height="309" fill="#8B0A57" fill-opacity="0.2"/>
<rect x="1646" y="258" width="196" height="179" fill="#8B0A57" fill-opacity="0.2"/>
<rect x="1669" y="685" width="89" height="169" fill="#8B0A57" fill-opacity="0.2"/>
<rect x="1713" y="818" width="112" height="210" fill="#8B0A57" fill-opacity="0.2"/>
<rect width="607" height="240" fill="#8B0A57" fill-opacity="0.2"/>
<rect width="226" height="478" fill="#8B0A57" fill-opacity="0.2"/>
<rect width="113" height="539" fill="#8B0A57" fill-opacity="0.2"/>
<rect width="1128" height="195" fill="#8B0A57" fill-opacity="0.2"/>
<rect width="288" height="443" fill="#8B0A57" fill-opacity="0.2"/>
<rect width="156" height="575" fill="#8B0A57" fill-opacity="0.2"/>
<rect width="57" height="734" fill="#8B0A57" fill-opacity="0.2"/>
<rect x="85" width="699" height="146" fill="#8B0A57" fill-opacity="0.2"/>
<rect x="1243" width="677" height="132" fill="#8B0A57" fill-opacity="0.2"/>
<rect x="1620" width="298" height="196" fill="#8B0A57" fill-opacity="0.2"/>
<rect x="1752" width="166" height="313" fill="#8B0A57" fill-opacity="0.2"/>
<rect x="975" width="943" height="224" fill="#8B0A57" fill-opacity="0.2"/>
<rect x="1374" width="544" height="292" fill="#8B0A57" fill-opacity="0.2"/>
<rect x="1691" width="227" height="626" fill="#8B0A57" fill-opacity="0.2"/>
</g>
<defs>
<clipPath id="clip0_25_2">
<rect width="1920" height="1200" fill="white"/>
</clipPath>
</defs>
</svg>
