<svg width="650" height="680" viewBox="0 0 650 680" fill="none" xmlns="http://www.w3.org/2000/svg">
<g clip-path="url(#clip0_65_124)">
<rect width="203" height="459" transform="matrix(-1 0 0 1 650 0)" fill="#8B0A57" fill-opacity="0.2"/>
<rect width="489" height="111" transform="matrix(-1 0 0 1 650 0)" fill="#8B0A57" fill-opacity="0.2"/>
<rect width="375" height="212" transform="matrix(-1 0 0 1 650 0)" fill="#8B0A57" fill-opacity="0.2"/>
<rect width="95" height="131" transform="matrix(-1 0 0 1 650 549)" fill="#8B0A57" fill-opacity="0.2"/>
<rect width="78" height="180" transform="matrix(-1 0 0 1 418 358)" fill="#8B0A57" fill-opacity="0.2"/>
<rect width="131" height="95" transform="matrix(-1 0 0 1 316 184)" fill="#8B0A57" fill-opacity="0.2"/>
<rect width="231" height="227" transform="matrix(-1 0 0 1 603 163)" fill="#8B0A57" fill-opacity="0.2"/>
<rect width="87" height="79" transform="matrix(-1 0 0 1 87 0)" fill="#8B0A57" fill-opacity="0.2"/>
</g>
<defs>
<clipPath id="clip0_65_124">
<rect width="650" height="680" fill="white" transform="matrix(-1 0 0 1 650 0)"/>
</clipPath>
</defs>
</svg>
