<svg width="32" height="32" viewBox="0 0 32 32" fill="none" xmlns="http://www.w3.org/2000/svg">
<rect y="11" width="32" height="18" fill="#F9E6F1"/>
<path d="M18 24.5V7H21.25V21.75H30.4V24.5H18Z" fill="#8B0A57"/>
<path d="M8.07505 24.75C6.95838 24.75 5.92505 24.5333 4.97505 24.1C4.04172 23.6667 3.27505 23.0417 2.67505 22.225L4.52505 20C5.00838 20.6667 5.53338 21.1667 6.10005 21.5C6.68338 21.8333 7.31672 22 8.00005 22C9.81672 22 10.725 20.925 10.725 18.775V9.725H4.50005V7H13.975V18.6C13.975 20.6667 13.4667 22.2083 12.45 23.225C11.45 24.2417 9.99172 24.75 8.07505 24.75Z" fill="#8B0A57"/>
</svg>
