<svg width="1000" height="230" viewBox="0 0 1000 230" fill="none" xmlns="http://www.w3.org/2000/svg">
<g clip-path="url(#clip0_38_2)">
<rect y="121" width="264" height="109" fill="#8B0A57" fill-opacity="0.2"/>
<rect x="865" y="121" width="135" height="109" fill="#8B0A57" fill-opacity="0.2"/>
<rect x="838" y="168" width="162" height="62" fill="#8B0A57" fill-opacity="0.2"/>
<rect y="168" width="30" height="62" fill="#8B0A57" fill-opacity="0.2"/>
<rect x="748" y="80" width="174" height="150" fill="#8B0A57" fill-opacity="0.2"/>
<rect x="165" y="143" width="141" height="87" fill="#8B0A57" fill-opacity="0.2"/>
<rect x="406" y="61" width="143" height="169" fill="#8B0A57" fill-opacity="0.2"/>
<rect x="515" y="146" width="88" height="84" fill="#8B0A57" fill-opacity="0.2"/>
<rect x="30" y="152" width="94" height="78" fill="#8B0A57" fill-opacity="0.2"/>
<rect x="13" y="65" width="20" height="20" fill="#8B0A57" fill-opacity="0.2"/>
<rect x="247" y="80" width="75" height="21" fill="#8B0A57" fill-opacity="0.2"/>
<rect x="704" width="20" height="65" fill="#8B0A57" fill-opacity="0.2"/>
<rect x="30" y="152" width="94" height="78" fill="#8B0A57" fill-opacity="0.2"/>
<rect x="694" y="175" width="113" height="55" fill="#8B0A57" fill-opacity="0.2"/>
<rect x="515" y="146" width="88" height="84" fill="#8B0A57" fill-opacity="0.2"/>
<rect x="464" y="193" width="207" height="37" fill="#8B0A57" fill-opacity="0.2"/>
<rect x="317" y="207" width="181" height="23" fill="#8B0A57" fill-opacity="0.2"/>
<rect x="621" y="186" width="186" height="44" fill="#8B0A57" fill-opacity="0.2"/>
<rect x="63" y="101" width="43" height="129" fill="#8B0A57" fill-opacity="0.2"/>
<rect x="124" y="198" width="159" height="32" fill="#8B0A57" fill-opacity="0.2"/>
<rect x="568" y="110" width="74" height="120" fill="#8B0A57" fill-opacity="0.2"/>
<rect x="243" y="190" width="147" height="40" fill="#8B0A57" fill-opacity="0.2"/>
<rect x="970" y="135" width="30" height="95" fill="#8B0A57" fill-opacity="0.2"/>
<rect x="291" y="158" width="155" height="72" fill="#8B0A57" fill-opacity="0.2"/>
<rect x="694" y="186" width="263" height="44" fill="#8B0A57" fill-opacity="0.2"/>
<rect x="748" y="186" width="209" height="44" fill="#8B0A57" fill-opacity="0.2"/>
<rect x="43" y="182" width="190" height="48" fill="#8B0A57" fill-opacity="0.2"/>
<rect x="243" y="190" width="147" height="40" fill="#8B0A57" fill-opacity="0.2"/>
<rect x="365" y="158" width="112" height="72" fill="#8B0A57" fill-opacity="0.2"/>
<rect x="365" y="158" width="112" height="72" fill="#8B0A57" fill-opacity="0.2"/>
<rect x="464" y="193" width="207" height="37" fill="#8B0A57" fill-opacity="0.2"/>
<rect x="603" y="133" width="189" height="97" fill="#8B0A57" fill-opacity="0.2"/>
<rect x="190" y="171" width="325" height="59" fill="#8B0A57" fill-opacity="0.2"/>
</g>
<defs>
<clipPath id="clip0_38_2">
<rect width="1000" height="230" fill="white"/>
</clipPath>
</defs>
</svg>
