<svg width="1000" height="343" viewBox="0 0 1000 343" fill="none" xmlns="http://www.w3.org/2000/svg">
<g clip-path="url(#clip0_35_249)">
<rect y="180" width="264" height="163" fill="#8B0A57" fill-opacity="0.2"/>
<rect x="865" y="180" width="135" height="163" fill="#8B0A57" fill-opacity="0.2"/>
<rect x="838" y="251" width="162" height="92" fill="#8B0A57" fill-opacity="0.2"/>
<rect y="251" width="30" height="92" fill="#8B0A57" fill-opacity="0.2"/>
<rect x="748" y="119" width="174" height="224" fill="#8B0A57" fill-opacity="0.2"/>
<rect x="165" y="214" width="141" height="129" fill="#8B0A57" fill-opacity="0.2"/>
<rect x="406" y="90" width="143" height="253" fill="#8B0A57" fill-opacity="0.2"/>
<rect x="515" y="218" width="88" height="125" fill="#8B0A57" fill-opacity="0.2"/>
<rect x="30" y="227" width="94" height="116" fill="#8B0A57" fill-opacity="0.2"/>
<rect x="13" y="96" width="30" height="30" fill="#8B0A57" fill-opacity="0.2"/>
<rect x="233" y="119" width="108" height="31" fill="#8B0A57" fill-opacity="0.2"/>
<rect x="694" width="30" height="97" fill="#8B0A57" fill-opacity="0.2"/>
<rect x="30" y="227" width="94" height="116" fill="#8B0A57" fill-opacity="0.2"/>
<rect x="694" y="261" width="113" height="82" fill="#8B0A57" fill-opacity="0.2"/>
<rect x="515" y="218" width="88" height="125" fill="#8B0A57" fill-opacity="0.2"/>
<rect x="464" y="287" width="207" height="56" fill="#8B0A57" fill-opacity="0.2"/>
<rect x="317" y="309" width="181" height="34" fill="#8B0A57" fill-opacity="0.2"/>
<rect x="621" y="277" width="186" height="66" fill="#8B0A57" fill-opacity="0.2"/>
<rect x="63" y="150" width="43" height="193" fill="#8B0A57" fill-opacity="0.2"/>
<rect x="124" y="295" width="159" height="48" fill="#8B0A57" fill-opacity="0.2"/>
<rect x="568" y="164" width="74" height="179" fill="#8B0A57" fill-opacity="0.2"/>
<rect x="243" y="283" width="147" height="60" fill="#8B0A57" fill-opacity="0.2"/>
<rect x="970" y="202" width="30" height="141" fill="#8B0A57" fill-opacity="0.2"/>
<rect x="291" y="236" width="155" height="107" fill="#8B0A57" fill-opacity="0.2"/>
<rect x="694" y="277" width="263" height="66" fill="#8B0A57" fill-opacity="0.2"/>
<rect x="748" y="277" width="209" height="66" fill="#8B0A57" fill-opacity="0.2"/>
<rect x="43" y="271" width="190" height="72" fill="#8B0A57" fill-opacity="0.2"/>
<rect x="243" y="283" width="147" height="60" fill="#8B0A57" fill-opacity="0.2"/>
<rect x="365" y="236" width="112" height="107" fill="#8B0A57" fill-opacity="0.2"/>
<rect x="365" y="236" width="112" height="107" fill="#8B0A57" fill-opacity="0.2"/>
<rect x="464" y="287" width="207" height="56" fill="#8B0A57" fill-opacity="0.2"/>
<rect x="603" y="199" width="189" height="144" fill="#8B0A57" fill-opacity="0.2"/>
<rect x="190" y="255" width="325" height="88" fill="#8B0A57" fill-opacity="0.2"/>
</g>
<defs>
<clipPath id="clip0_35_249">
<rect width="1000" height="343" fill="white"/>
</clipPath>
</defs>
</svg>
